<?xml version="1.0" encoding="UTF-8"?>
<svg id="Capa_1" data-name="Capa 1" xmlns="http://www.w3.org/2000/svg" viewBox="0 0 1080 1080">
  <defs>
    <style>
      .cls-1, .cls-2 {
        fill: #fff;
      }

      .cls-2 {
        font-family: DukasCFBold-Regular, 'Dukas CF Bold';
        font-size: 72.05px;
      }

      .cls-3 {
        fill: #103166;
      }
    </style>
  </defs>
  <circle class="cls-3" cx="537.5" cy="542.5" r="537.5"/>
  <g>
    <circle class="cls-1" cx="299.11" cy="601.44" r="80.5"/>
    <polygon class="cls-1" points="667.61 681.94 540.61 681.94 363.61 370.94 404.61 243.94 667.61 681.94"/>
    <path class="cls-1" d="M754.49,527.18c.26-.08,.53-.15,.78-.23,15.24-4.73,29.39-13.28,42.46-25.64,13.07-12.36,23.32-27.91,30.74-46.64,7.42-18.74,11.13-39.28,11.13-61.63,0-31.42-6.63-58.9-19.9-82.44-13.27-23.53-30.15-40.53-50.64-50.98-20.49-10.45-51.82-15.68-93.99-15.68h-212.47c-.44,0,68.84,98.79,68.84,98.79,.1,.13,.26,.21,.43,.22l145.19,2.75c37.77,.7,68.96,29.68,72.45,67.29,.03,.32,.06,.64,.09,.96,1.18,12.63-4.8,24.63-12.47,34.54-9.92,12.81-25.34,20.13-41.54,20.14h0s-17.99,.32-17.99,.32h-75.03c-.43,0-.69,.47-.47,.83l125.35,210.9c.1,.17,.28,1.27,.47,1.27h112.74c.42,0,.69-.46,.49-.83l-86.65-153.93Z"/>
    <text class="cls-2" transform="translate(236.96 814.44)"><tspan x="0" y="0">ANDRES REINOZA</tspan></text>
    <rect class="cls-1" x="218.61" y="721.56" width="642.78" height="10"/>
  </g>
</svg>