<?xml version="1.0" encoding="UTF-8"?>
<svg id="Capa_2" data-name="Capa 2" xmlns="http://www.w3.org/2000/svg" viewBox="0 0 101.46 101.46">
  <defs>
    <style>
      .cls-1 {
        fill: #fff;
        fill-rule: evenodd;
      }

      .cls-2 {
        fill: #d31c1c;
      }
    </style>
  </defs>
  <g id="OBJECTS">
    <path class="cls-2" d="M101.46,52.37c0,34.84-15.89,49.09-50.73,49.09S0,87.21,0,52.37,15.89,0,50.73,0s50.73,17.53,50.73,52.37"/>
    <g>
      <path class="cls-1" d="M73.13,28.35c-5.98-5.98-13.93-9.28-22.4-9.28-17.45,0-31.65,14.2-31.66,31.65,0,5.58,1.46,11.03,4.23,15.82l-4.49,16.4,16.78-4.4c4.62,2.52,9.83,3.85,15.13,3.85h.01c17.45,0,31.65-14.2,31.66-31.65,0-8.46-3.29-16.41-9.26-22.39m-22.4,48.7h-.01c-4.72,0-9.35-1.27-13.39-3.67l-.96-.57-9.96,2.61,2.66-9.71-.62-.99c-2.63-4.19-4.03-9.03-4.02-14,0-14.5,11.81-26.3,26.33-26.3,7.03,0,13.64,2.74,18.61,7.71,4.97,4.97,7.7,11.58,7.7,18.61,0,14.51-11.81,26.31-26.32,26.31"/>
      <path class="cls-1" d="M65.17,57.35c-.79-.4-4.68-2.31-5.4-2.57-.73-.26-1.25-.39-1.78,.4-.53,.79-2.04,2.57-2.51,3.1-.46,.53-.92,.59-1.71,.2-.79-.4-3.34-1.23-6.36-3.92-2.35-2.1-3.94-4.69-4.4-5.48-.46-.79-.05-1.22,.35-1.61,.36-.35,.79-.92,1.19-1.39,.39-.46,.53-.79,.79-1.32,.26-.53,.13-.99-.07-1.39-.2-.39-1.78-4.29-2.44-5.87-.64-1.54-1.29-1.33-1.78-1.36-.46-.02-.99-.03-1.52-.03s-1.38,.2-2.11,.99c-.72,.79-2.77,2.71-2.77,6.6s2.83,7.65,3.23,8.18c.39,.53,5.58,8.52,13.51,11.94,1.89,.82,3.36,1.3,4.51,1.67,1.89,.6,3.62,.52,4.98,.31,1.52-.23,4.68-1.91,5.34-3.76,.66-1.85,.66-3.43,.46-3.76-.2-.33-.72-.53-1.52-.92"/>
    </g>
  </g>
</svg>