<?xml version="1.0" encoding="UTF-8"?>
<svg id="Capa_2" data-name="Capa 2" xmlns="http://www.w3.org/2000/svg" viewBox="0 0 101.46 101.46">
  <defs>
    <style>
      .cls-1 {
        fill: #fff;
      }

      .cls-2 {
        fill: #d31c1c;
      }
    </style>
  </defs>
  <g id="OBJECTS">
    <path class="cls-2" d="M101.46,52.37c0,34.84-15.89,49.09-50.73,49.09S0,87.21,0,52.37,15.89,0,50.73,0s50.73,17.53,50.73,52.37"/>
    <path class="cls-1" d="M84.73,57.07c-.97,.6-.76,1.68-1,2.56-3.11,11.31-9.96,19.3-20.94,23.59-2.83,1.11-3.52,.6-3.54-2.35-.02-2.3-.05-4.6,0-6.9,.06-2.58-.24-5.05-1.95-7.25,1.71-.4,3.28-.67,4.78-1.14,9.29-2.89,13.62-15.01,8.24-23.17-.84-1.27-1.46-2.38-.76-3.86,.04-.08,.06-.17,.07-.25,.32-2.33,.39-5.02-1.29-6.47-1.48-1.27-3.8,.17-5.39,1.15-2.46,1.52-4.81,2.06-7.7,1.34-2.82-.7-5.83-.79-8.68-.04-3.01,.79-5.58,.24-8.22-1.34-1.58-.94-3.89-2.43-5.37-1.05-1.53,1.42-1.66,4.09-1.12,6.27,.42,1.7,.18,2.9-.78,4.38-5.65,8.65-.43,21.15,9.7,23.46,1.03,.24,2.08,.4,3.33,.63-.38,.67-.84,1.19-.97,1.79-.46,2.13-1.53,3.35-3.86,3.52-2.54,.19-4.5-.63-6-2.63-.95-1.27-1.73-2.67-3.14-3.54-.92-.56-1.9-.95-2.96-1.08-.53-.07-1.18,.09-1.33,.62-.08,.28,.29,.87,.62,1.07,2.4,1.47,3.47,3.84,4.69,6.22,1.7,3.31,4.97,3.87,8.23,3.5,2.62-.3,2.96,.69,2.91,2.95-.12,5.29-.55,5.72-5.34,3.51-9.99-4.6-16.37-12.3-19.22-22.93-.23-.87-.03-1.96-1-2.56v-11.16c.99-.47,.77-1.5,.96-2.28,3.84-15.52,17.23-26.03,33.16-25.99,15.93,.04,29.17,10.6,32.98,26.22,.21,.85-.1,1.98,.91,2.58v10.62Z"/>
  </g>
</svg>