<?xml version="1.0" encoding="UTF-8"?>
<svg id="Capa_2" data-name="Capa 2" xmlns="http://www.w3.org/2000/svg" viewBox="0 0 101.46 101.46">
  <defs>
    <style>
      .cls-1 {
        fill: #fff;
      }

      .cls-2 {
        fill: #d31c1c;
      }
    </style>
  </defs>
  <g id="OBJECTS">
    <g>
      <path class="cls-2" d="M101.46,52.37c0,34.84-15.89,49.09-50.73,49.09S0,87.21,0,52.37,15.89,0,50.73,0s50.73,17.53,50.73,52.37"/>
      <g>
        <path class="cls-1" d="M23.86,41.41h11.53v37.06h-11.53V41.41Zm5.77-18.43c3.69,0,6.68,2.99,6.68,6.68s-2.99,6.68-6.68,6.68-6.68-2.99-6.68-6.68,2.98-6.68,6.68-6.68"/>
        <path class="cls-1" d="M42.61,41.41h11.04v5.06h.16c1.54-2.91,5.3-5.99,10.9-5.99,11.65,0,13.81,7.67,13.81,17.66v20.33h-11.51v-18.02c0-4.3-.08-9.83-5.99-9.83s-6.91,4.68-6.91,9.52v18.33h-11.5V41.41Z"/>
      </g>
    </g>
  </g>
</svg>