<?xml version="1.0" encoding="UTF-8"?>
<svg id="Capa_2" data-name="Capa 2" xmlns="http://www.w3.org/2000/svg" viewBox="0 0 101.46 101.46">
  <defs>
    <style>
      .cls-1 {
        fill: #fff;
      }

      .cls-2 {
        fill: #d31c1c;
      }
    </style>
  </defs>
  <g id="OBJECTS">
    <g>
      <path class="cls-2" d="M101.46,52.37c0,34.84-15.89,49.09-50.73,49.09S0,87.21,0,52.37,15.89,0,50.73,0s50.73,17.53,50.73,52.37"/>
      <path class="cls-1" d="M40.44,73.28c20.94,0,32.39-17.35,32.39-32.39,0-.49,0-.98-.03-1.47,2.22-1.61,4.16-3.61,5.68-5.89-2.04,.91-4.23,1.52-6.54,1.79,2.35-1.41,4.15-3.64,5-6.3-2.2,1.3-4.63,2.25-7.23,2.76-2.08-2.21-5.04-3.6-8.31-3.6-6.29,0-11.38,5.1-11.38,11.38,0,.89,.1,1.76,.29,2.6-9.46-.48-17.85-5.01-23.46-11.89-.98,1.68-1.54,3.64-1.54,5.72,0,3.95,2.01,7.44,5.07,9.47-1.87-.06-3.62-.57-5.16-1.42,0,.05,0,.1,0,.15,0,5.51,3.93,10.12,9.13,11.16-.96,.26-1.96,.4-3,.4-.73,0-1.45-.07-2.14-.21,1.45,4.52,5.65,7.81,10.63,7.91-3.9,3.05-8.8,4.87-14.14,4.87-.92,0-1.82-.05-2.71-.16,5.04,3.23,11.02,5.11,17.45,5.11"/>
    </g>
  </g>
</svg>